<svg viewBox="0 0 200 200" xmlns="http://www.w3.org/2000/svg">
  <!-- Background circle -->
  <circle cx="100" cy="100" r="90" fill="#33417c" />
  <circle cx="100" cy="100" r="80" fill="#1a2450" />
  
  <!-- Primogem shape (modified) -->
  <path d="M100 55 L125 100 L100 145 L75 100 Z" fill="#ece5d8" stroke="#c1b198" stroke-width="2" />
  
  <!-- Gear elements -->
  <g transform="translate(100, 100)">
    <!-- Outer gear teeth -->
    <path d="M0,-60 L5,-50 L-5,-50 Z" fill="#e2d9bc" transform="rotate(0)" />
    <path d="M0,-60 L5,-50 L-5,-50 Z" fill="#e2d9bc" transform="rotate(45)" />
    <path d="M0,-60 L5,-50 L-5,-50 Z" fill="#e2d9bc" transform="rotate(90)" />
    <path d="M0,-60 L5,-50 L-5,-50 Z" fill="#e2d9bc" transform="rotate(135)" />
    <path d="M0,-60 L5,-50 L-5,-50 Z" fill="#e2d9bc" transform="rotate(180)" />
    <path d="M0,-60 L5,-50 L-5,-50 Z" fill="#e2d9bc" transform="rotate(225)" />
    <path d="M0,-60 L5,-50 L-5,-50 Z" fill="#e2d9bc" transform="rotate(270)" />
    <path d="M0,-60 L5,-50 L-5,-50 Z" fill="#e2d9bc" transform="rotate(315)" />
  </g>
  
  <!-- Abstract code/mod lines -->
  <g stroke="#d8e5ff" stroke-width="1.5" opacity="0.7">
    <line x1="70" y1="95" x2="60" y2="105" />
    <line x1="60" y1="105" x2="70" y2="115" />
    <line x1="70" y1="115" x2="80" y2="115" />
    
    <line x1="130" y1="95" x2="140" y2="105" />
    <line x1="140" y1="105" x2="130" y2="115" />
    <line x1="130" y1="115" x2="120" y2="115" />
  </g>
  
  <!-- Glow effects -->
  <circle cx="100" cy="100" r="60" fill="url(#glow)" opacity="0.4" />
  
  <!-- Definitions -->
  <defs>
    <radialGradient id="glow" cx="50%" cy="50%" r="50%" fx="50%" fy="50%">
      <stop offset="0%" stop-color="#ece5d8" />
      <stop offset="100%" stop-color="#c1b198" stop-opacity="0" />
    </radialGradient>
  </defs>
  
  <!-- Subtle animation for a modern feel -->
  <style>
    @keyframes pulse {
      0% { opacity: 0.7; }
      50% { opacity: 1; }
      100% { opacity: 0.7; }
    }
    circle, path {
      animation: pulse 3s infinite ease-in-out;
    }
  </style>
</svg>